<svg width="481" height="403" viewBox="0 0 481 403" fill="none" xmlns="http://www.w3.org/2000/svg">
<path d="M323.996 201.915C317.75 198.37 311.654 196.162 309.158 189.468C309.05 189.179 308.981 188.88 308.952 188.577C308.754 188.527 306.532 186.337 306.6 185.063C306.388 184.549 309.117 183.745 308.966 183.207C308.712 182.304 306.69 179.421 307.238 178.567C307.238 178.332 310.721 178.202 311.839 178.425C316.495 179.377 320.966 180.479 326.108 180.782C325.909 180.237 327.418 179.019 327.336 178.449C326.856 175.071 324.497 171.774 322.906 168.73C319.623 162.379 315.8 156.266 311.469 150.449C309.755 149.793 308.212 149.075 306.792 149.991C299.449 154.73 299.332 162.952 297.673 170.407C297.597 170.5 296.74 176.791 296.987 179.736C297.151 182.96 297.036 186.191 296.644 189.4C296.61 189.728 296.082 204.582 296.082 204.582C296.313 205.546 296.736 206.464 297.33 207.291C300.758 212.513 304.187 214.369 304.187 214.369C311.188 213.596 326.382 211.894 333.404 210.855C334.933 210.626 336.894 210.193 337.806 209.506C333.411 207.397 328.186 204.297 323.996 201.915Z" fill="#A1C2F5"/>
<path d="M470.821 350.92C470.821 322.338 469.497 293.78 468.531 265.217C467.625 238.404 468.942 212.179 468.942 185.459C468.942 173.234 468.256 156.753 468.256 148.772C468.256 140.791 468.085 109.907 467.029 90.8277C466.282 77.3222 466.09 60.3399 466.09 47.8924C466.09 47.8924 454.2 47.4779 446.115 47.7439C444.813 47.781 443.51 47.8119 442.2 47.8367V48.511C442.2 48.511 442.385 79.2339 442.385 94.2922C442.385 122.868 443.702 151.432 444.669 179.996C445.574 206.809 444.257 233.034 444.257 259.748C444.257 271.979 444.943 288.454 444.943 296.441C444.943 304.428 445.121 335.299 446.177 354.379C446.918 367.884 447.117 384.248 447.117 396.702H470.999C470.999 396.702 470.821 365.948 470.821 350.92Z" fill="#6D7D96"/>
<path d="M442.199 48.5117C442.199 48.5117 442.385 79.2346 442.385 94.2929C442.385 122.869 443.701 151.433 444.668 179.996C445.573 206.809 444.256 233.035 444.256 259.749C444.256 271.98 444.942 288.455 444.942 296.441C444.942 304.428 445.12 335.3 446.176 354.379C446.917 367.885 447.116 384.249 447.116 396.702H436.481C436.481 384.249 436.289 367.885 435.541 354.379C434.492 335.3 434.314 304.422 434.314 296.441C434.314 288.461 433.628 271.98 433.628 259.749C433.628 233.035 434.945 206.809 434.04 179.996C433.073 151.433 431.75 122.869 431.75 94.2929C431.75 79.2593 431.571 48.5117 431.571 48.5117H442.199Z" fill="#A1C2F5"/>
<path d="M308.978 215.323C308.978 217.797 308.916 221.509 309.046 223.928C326.188 224.795 344.901 220.637 361.755 221.646" stroke="#6D7D96" stroke-width="4" stroke-linecap="round" stroke-linejoin="round"/>
<path d="M340.438 223.518C336.817 223.629 329.467 227.737 333.293 231.784C336.214 233.584 339.196 225.931 341.809 223.518C343.77 230.422 352.711 233.67 349.79 226.611C348.865 224.378 343.667 222.862 341.445 222.658C340.163 227.935 337.51 236.145 338.086 240.525" stroke="#6D7D96" stroke-width="4" stroke-linecap="round" stroke-linejoin="round"/>
<path d="M343.692 237.297C343.987 233.263 342.8 228.802 341.347 225.053" stroke="#6D7D96" stroke-width="4" stroke-linecap="round" stroke-linejoin="round"/>
<path d="M310.856 224.868C310.856 249.751 309.917 274.664 309.917 299.615C309.917 319.443 307.86 339.049 308.038 358.951C308.093 365.2 304.123 377.592 314.648 377.084C321.066 376.781 331.461 376.193 337.961 376.193" stroke="#6D7D96" stroke-width="4" stroke-linecap="round" stroke-linejoin="round"/>
<path d="M336.213 248.934C337.581 249.305 339.012 249.447 340.437 249.354" stroke="#6D7D96" stroke-width="4" stroke-linecap="round" stroke-linejoin="round"/>
<path d="M339.498 249.799C339.608 268.402 340.423 286.715 340.108 305.361C339.841 321.113 339.614 336.876 339.32 352.565C339.176 360.206 339.025 373.247 339.025 376.075C339.025 378.902 338.922 379.496 342.762 379.972C347.987 380.628 354.357 379.855 359.664 379.62C364.498 379.409 375.435 379.416 381.304 379.44C382.365 379.444 383.387 379.084 384.164 378.432C384.941 377.781 385.414 376.887 385.487 375.932C385.816 371.497 386.282 363.881 386.028 358.901C385.727 353.203 385.987 347.431 385.987 341.727V301.346C385.987 280.163 386.927 254.761 386.447 233.584" stroke="#6D7D96" stroke-width="4" stroke-linecap="round" stroke-linejoin="round"/>
<path d="M387.709 191.726C387.805 194.392 387.456 197.294 388.141 199.83C388.717 201.94 392.605 205.924 392.605 205.924C388.141 199.83 374.997 194.93 363.56 190.934C352.589 187.092 337.407 178.443 326.347 175.665C326.553 176.834 326.752 180.614 326.752 180.614C320.012 181.14 313.635 178.27 306.689 178.554C307.052 181.796 313.422 185.359 316.234 186.906C314.32 186.189 308.142 182.056 306.6 185.05C305.228 187.729 314.89 192.344 316.535 193.786C313.738 193.167 312.229 190.179 309.047 190.81C309.377 196.093 324.256 201.779 328.5 204.068C342.564 211.659 356.902 219.77 371.616 226.191C381.147 230.349 392.722 238.416 403.158 235.471C418.305 231.178 414.417 207.662 413.231 195.574" stroke="#6D7D96" stroke-width="4" stroke-linecap="round" stroke-linejoin="round"/>
<path d="M384.631 174.36C384.809 178.691 385.316 183.225 385.515 187.259C385.742 192.208 387.449 191.732 392.969 192.945C396.397 193.699 406.964 195.271 413.539 194.745C414.346 194.679 415.091 194.328 415.611 193.768C416.131 193.208 416.385 192.485 416.316 191.757C415.384 181.351 413.841 167.678 412.627 162.321C410.749 154.018 406.456 140.296 395.773 136.826C387.767 134.209 379.293 132.951 370.78 133.114C366.604 138.428 364.725 140.742 360.323 145.914C357.361 149.391 353.034 153.666 350.724 156.623" stroke="#6D7D96" stroke-width="4" stroke-linecap="round" stroke-linejoin="round"/>
<path d="M366.259 161.894C369.626 161.275 378.937 161.894 378.937 161.894" stroke="#6D7D96" stroke-width="4" stroke-linecap="round" stroke-linejoin="round"/>
<path d="M370.14 158.535C368.921 162.005 369.668 166.225 369.668 169.906" stroke="#6D7D96" stroke-width="4" stroke-linecap="round" stroke-linejoin="round"/>
<path d="M357.052 156.9C352.663 156.641 348.256 156.786 343.9 157.333" stroke="#6D7D96" stroke-width="4" stroke-linecap="round" stroke-linejoin="round"/>
<path d="M350.764 156.208C347.335 150.442 337.976 135.903 337.976 135.903C337.976 135.903 335.672 134.752 328.054 136.478C324.121 137.458 320.54 139.348 317.667 141.963C314.795 144.578 312.73 147.825 311.68 151.382" stroke="#6D7D96" stroke-width="4" stroke-linecap="round" stroke-linejoin="round"/>
<path d="M339.58 138.346C348.597 147.156 362.208 141.087 368.9 134.634" stroke="#6D7D96" stroke-width="4" stroke-linecap="round" stroke-linejoin="round"/>
<path d="M370.264 99.6812C370.223 102.774 369.866 111.157 369.866 111.157C369.866 111.157 373.706 111.225 376.188 113.49C380.707 117.61 374.131 120.196 369.619 119.973C369.365 124.564 369.551 133.429 369.551 133.429" stroke="#6D7D96" stroke-width="4" stroke-linecap="round" stroke-linejoin="round"/>
<path d="M337.975 135.904C337.975 124.991 337.927 114.189 338.593 103.406C338.798 100.078 339.347 91.8493 341.15 89.3809" stroke="#6D7D96" stroke-width="4" stroke-linecap="round" stroke-linejoin="round"/>
<path d="M346.072 105.033V102.41" stroke="#6D7D96" stroke-width="4" stroke-linecap="round" stroke-linejoin="round"/>
<path d="M354.521 104.6V101.977" stroke="#6D7D96" stroke-width="4" stroke-linecap="round" stroke-linejoin="round"/>
<path d="M351.237 113.348C353.623 113.886 355.729 112.908 356.401 110.718" stroke="#6D7D96" stroke-width="4" stroke-linecap="round" stroke-linejoin="round"/>
<path d="M326.346 175.665C326.346 175.665 316.568 157.86 311.679 151.383C306.79 144.905 295.757 149.756 288.208 150.183C282.722 150.492 269.482 150.956 269.482 150.956C256.831 151.488 257.338 167.326 256.851 175.888C256.056 189.864 258.812 201.94 250.234 213.936C258.229 220.89 277.525 217.605 287.261 217.357C288.749 213.027 288.578 208.028 289.421 203.586C290.326 198.834 290.272 193.842 290.162 189.035C289.812 173.655 290.772 161.35 304.417 151.21" stroke="#6D7D96" stroke-width="4" stroke-linecap="round" stroke-linejoin="round"/>
<path d="M339.024 210.001C332.057 211.387 312.522 213.601 305.844 214.331C305.143 214.408 304.433 214.33 303.773 214.104C303.114 213.877 302.525 213.51 302.059 213.032L295.332 206.165" stroke="#6D7D96" stroke-width="4" stroke-linecap="round" stroke-linejoin="round"/>
<path d="M308.964 149.118C296.82 151.024 296.621 175.257 296.758 184.017C296.868 193.613 297.444 200.214 294.338 209.494C292.731 209.482 291.125 209.592 289.538 209.822" stroke="#6D7D96" stroke-width="4" stroke-linecap="round" stroke-linejoin="round"/>
<path d="M276.107 150.01C276.107 145.345 276.107 140.445 279.755 137.741C283.04 135.322 287.552 135.434 291.604 135.267C301.951 134.797 303.343 140.099 303.343 147.912" stroke="#6D7D96" stroke-width="4" stroke-linecap="round" stroke-linejoin="round"/>
<path d="M285.025 134.777C282.283 126.32 277.647 115.308 277.647 115.308L282.091 114.287C285.896 120.338 290.737 134.338 290.737 134.338" stroke="#6D7D96" stroke-width="4" stroke-linecap="round" stroke-linejoin="round"/>
<path d="M289.074 143.389C292.887 142.671 299.072 141.248 302.692 143.389" stroke="#6D7D96" stroke-width="4" stroke-linecap="round" stroke-linejoin="round"/>
<path d="M313.668 378.823C313.668 382.894 312.579 389.42 314.141 392.817" stroke="#6D7D96" stroke-width="4" stroke-linecap="round" stroke-linejoin="round"/>
<path d="M346.072 381.446V394.128" stroke="#6D7D96" stroke-width="4" stroke-linecap="round" stroke-linejoin="round"/>
<path d="M379.878 381.006C379.878 385.046 380.097 393.689 380.097 393.689" stroke="#6D7D96" stroke-width="4" stroke-linecap="round" stroke-linejoin="round"/>
<path d="M382.629 394.629C382.732 396.485 382.697 398.446 382.697 400.315H339.499C337.408 390.237 382.615 394.431 382.629 394.629Z" fill="#6D7D96" stroke="#6D7D96" stroke-width="4" stroke-linecap="round" stroke-linejoin="round"/>
<path d="M347.912 394.629C348.015 396.485 347.981 398.446 347.981 400.315H304.782C302.691 390.237 347.898 394.431 347.912 394.629Z" fill="#6D7D96" stroke="#6D7D96" stroke-width="4" stroke-linecap="round" stroke-linejoin="round"/>
<path d="M348.05 395.47C348.05 393.509 348.42 391.325 348.612 389.377C348.763 387.898 348.777 385.906 349.764 384.693C350.22 384.14 350.879 383.75 351.624 383.594C352.368 383.438 353.15 383.525 353.83 383.839C356.511 385.3 351.554 391.171 350.649 392.705C353.597 391.202 355.743 387.477 359.343 387.094C362.655 386.741 361.928 390.459 359.816 391.53C357.073 392.928 352.959 392.909 350.703 394.722" stroke="#6D7D96" stroke-width="4" stroke-linecap="round" stroke-linejoin="round"/>
<path d="M316.485 393.688C317.616 390.941 326.174 385.349 322.197 382.429C317.349 378.871 313.879 389.784 313.283 392.197C311.98 387.706 309.169 382.998 303.388 383.666C302.703 391.944 307.283 390.923 313.674 392.816" stroke="#6D7D96" stroke-width="4" stroke-linecap="round" stroke-linejoin="round"/>
<path d="M319.194 127.429V140.57" stroke="#6D7D96" stroke-width="4" stroke-linecap="round" stroke-linejoin="round"/>
<path d="M470.998 396.677C470.998 396.677 470.82 365.948 470.82 350.896C470.82 322.314 469.497 293.756 468.53 265.192C467.625 238.379 468.941 212.154 468.941 185.434C468.941 173.209 468.256 156.728 468.256 148.747C468.256 140.767 468.084 109.883 467.028 90.8032C466.281 77.2978 466.089 60.3155 466.089 47.8679C466.089 47.8679 454.199 47.4534 446.115 47.7195C431.4 48.202 416.754 47.3668 402.114 48.0535C383.772 48.9197 364.861 49.8786 346.485 49.0496C334.039 48.4866 319.194 49.4579 319.194 49.4579V115.488" stroke="#6D7D96" stroke-width="4" stroke-linecap="round" stroke-linejoin="round"/>
<path d="M383.635 398.062H479" stroke="#6D7D96" stroke-width="4" stroke-linecap="round" stroke-linejoin="round"/>
<path d="M392.48 36.558L380.322 29.3135" stroke="#6D7D96" stroke-width="4" stroke-linecap="round" stroke-linejoin="round"/>
<path d="M382.346 29.488C382.346 29.488 390.163 16.9477 393.824 11.6829C396.67 7.58732 398.37 8.68235 401.332 9.97536C401.723 10.1486 402.464 10.5445 403.232 10.9652C403.58 11.1576 403.882 11.4103 404.121 11.7087C404.36 12.0071 404.531 12.3454 404.624 12.7038C404.717 13.0623 404.73 13.4339 404.663 13.797C404.596 14.1602 404.45 14.5077 404.233 14.8195C401.915 18.1665 397.787 24.1799 396.286 26.7226C394.633 29.5066 392.638 32.6742 391.335 35.3344" stroke="#6D7D96" stroke-width="4" stroke-linecap="round" stroke-linejoin="round"/>
<path d="M399.551 8.72563C400.202 8.10697 400.566 7.11711 401.299 6.25098L404.728 7.88425L402.671 10.4455" stroke="#6D7D96" stroke-width="4" stroke-linecap="round" stroke-linejoin="round"/>
<path d="M403.381 6.65236L407.036 2" stroke="#6D7D96" stroke-width="4" stroke-linecap="round" stroke-linejoin="round"/>
<path d="M380.79 36.2124C382.372 37.2432 384.036 38.1675 385.768 38.9778" stroke="#6D7D96" stroke-width="4" stroke-linecap="round" stroke-linejoin="round"/>
<path d="M383.291 37.4067L386.281 33.0884" stroke="#6D7D96" stroke-width="4" stroke-linecap="round" stroke-linejoin="round"/>
<path d="M394.571 24.57C394.859 24.4976 395.105 24.3267 395.256 24.0936L401.428 14.5847C401.545 14.408 401.622 14.2118 401.654 14.0077C401.685 13.8037 401.671 13.596 401.613 13.3969C401.498 12.9953 401.212 12.6508 400.817 12.438L398.76 11.3429C398.564 11.2371 398.347 11.1677 398.121 11.139C397.895 11.1103 397.664 11.1229 397.444 11.1759C396.999 11.2797 396.617 11.5376 396.381 11.8935L390.21 21.4024C390.133 21.5196 390.082 21.6493 390.061 21.7841C390.04 21.919 390.049 22.0563 390.086 22.1881C390.168 22.4478 390.357 22.6693 390.614 22.8068L393.693 24.44C393.822 24.5134 393.967 24.5627 394.117 24.585C394.268 24.6073 394.422 24.6022 394.571 24.57Z" fill="#A1C2F5"/>
<path d="M199.307 158.856C198.518 161.053 198.365 163.396 198.861 165.661" stroke="#6D7D96" stroke-width="4" stroke-linecap="round" stroke-linejoin="round"/>
<path d="M203.753 160.093C197.781 164.424 197.02 171.817 204.562 174.861C206.092 169.212 210.734 165.265 216.219 162.995C219.593 161.597 229.343 158.411 230.955 163.354C235.343 162.116 235.542 151.098 231.057 149.359C225.743 147.293 215.328 152.75 213.086 156.783" stroke="#6D7D96" stroke-width="4" stroke-linecap="round" stroke-linejoin="round"/>
<path d="M205.978 147.677C210.565 145.048 227.919 138.305 227.316 148.092" stroke="#6D7D96" stroke-width="4" stroke-linecap="round" stroke-linejoin="round"/>
<path d="M217.459 142.956C210.753 139.548 198.033 141.063 185.965 141.063C173.897 141.063 165.738 141.175 155.74 143.111C149.741 144.268 141.375 146.161 137.227 150.535C131.2 156.876 130.438 166.404 130.438 174.496C130.438 181.357 131.385 190.538 132.221 196.941L141.348 196.52" stroke="#6D7D96" stroke-width="4" stroke-linecap="round" stroke-linejoin="round"/>
<path d="M141.972 169.212C141.972 180.886 141.479 192.325 142.007 203.968C142.308 210.508 142.075 220.227 142.212 226.364C148.486 226.785 155.878 225.9 162.179 225.319C169.269 224.657 176.161 224.452 183.333 224.298C188.818 224.174 194.084 224.23 199.419 223.753C202.251 223.5 206.276 223.221 208.847 223.469" stroke="#6D7D96" stroke-width="4" stroke-linecap="round" stroke-linejoin="round"/>
<path d="M205.829 172.423C205.829 184.023 210.149 227.317 210.416 237.649C210.684 247.869 211.63 262.395 211.788 272.585C211.911 276.02 211.815 279.46 211.5 282.885C211.136 286.102 211.26 284.964 209.168 287.748C206.487 291.324 205.342 294.151 206.426 298.358" stroke="#6D7D96" stroke-width="4" stroke-linecap="round" stroke-linejoin="round"/>
<path d="M229.925 162.84C229.925 162.84 231.571 184.567 232.181 194.664C232.771 204.464 233.374 214.267 233.991 224.075C235.089 241.59 235.109 258.999 235.109 276.488C235.109 284.531 234.108 294.386 231.502 301.947C227.937 312.272 207.887 313.98 201.627 306.222C198.061 301.792 199.755 287.513 206.015 293.143" stroke="#6D7D96" stroke-width="4" stroke-linecap="round" stroke-linejoin="round"/>
<path d="M208.115 309.855C211.071 309.539 214.622 306.545 214.382 303.848" stroke="#6D7D96" stroke-width="4" stroke-linecap="round" stroke-linejoin="round"/>
<path d="M218.063 310.287C220.607 308.951 223.549 305.956 223.652 303.061" stroke="#6D7D96" stroke-width="4" stroke-linecap="round" stroke-linejoin="round"/>
<path d="M214.421 230.517C214.625 230.057 214.925 229.637 215.304 229.28" stroke="#6D7D96" stroke-width="4" stroke-linecap="round" stroke-linejoin="round"/>
<path d="M133.524 197.374C133.524 219.572 134.299 241.998 136.192 264.047C136.727 270.327 138.852 293.23 145.675 297.759" stroke="#6D7D96" stroke-width="4" stroke-linecap="round" stroke-linejoin="round"/>
<path d="M137.303 231.754C137.529 231.878 137.698 232.071 137.78 232.298C137.862 232.525 137.85 232.771 137.748 232.991" stroke="#6D7D96" stroke-width="4" stroke-linecap="round" stroke-linejoin="round"/>
<path d="M144.639 227.199C144.639 260.137 146.697 294.17 145.044 327.07C144.543 337.08 144.639 347.226 144.18 357.218C143.892 363.528 143.954 376.297 143.954 376.297C148.068 376.495 170.579 376.297 170.579 376.297" stroke="#6D7D96" stroke-width="4" stroke-linecap="round" stroke-linejoin="round"/>
<path d="M171.306 260.113C171.306 288.85 172.78 316.077 171.402 344.734C171.025 352.628 170.977 360.646 170.861 368.509C170.861 370.495 169.949 375.518 171.485 377.121C173.02 378.723 177.327 378.036 179.754 378.358C184.554 378.358 201.696 378.488 208.464 378.538C209.22 378.545 209.949 378.286 210.497 377.815C211.045 377.345 211.368 376.701 211.398 376.02C211.673 369.833 212.022 354.892 211.961 350.809C211.83 342.667 212.379 315.248 212.646 311.678" stroke="#6D7D96" stroke-width="4" stroke-linecap="round" stroke-linejoin="round"/>
<path d="M175.581 379.609C175.581 383.29 175.341 392.656 175.341 392.656" stroke="#6D7D96" stroke-width="4" stroke-linecap="round" stroke-linejoin="round"/>
<path d="M203.751 379.609V392.885" stroke="#6D7D96" stroke-width="4" stroke-linecap="round" stroke-linejoin="round"/>
<path d="M149.084 377.122V392.867" stroke="#6D7D96" stroke-width="4" stroke-linecap="round" stroke-linejoin="round"/>
<path d="M146.901 393.689C155.356 393.689 193.631 390.181 191.786 400.315H146.421C146.229 398.097 146.391 395.866 146.901 393.689Z" fill="#6D7D96" stroke="#6D7D96" stroke-width="4" stroke-linecap="round" stroke-linejoin="round"/>
<path d="M174.714 393.689C182.942 393.689 220.113 390.181 218.324 400.315H174.248C174.061 398.098 174.218 395.867 174.714 393.689Z" fill="#6D7D96" stroke="#6D7D96" stroke-width="4" stroke-linecap="round" stroke-linejoin="round"/>
<path d="M162.351 124.878C162.596 125.396 162.984 125.848 163.479 126.19C163.974 126.533 164.558 126.754 165.176 126.833C174.707 127.953 182.489 124.037 183.751 114.058C184.224 110.29 183.401 106.015 184.197 102.303C185.088 98.1521 186.11 99.012 190.793 97.886C191.163 95.3124 189.483 92.3181 188.366 90.0599C192.48 90.5239 199.748 89.1814 202.354 86.0262C205.899 81.7265 202.532 72.7559 196.608 77.9279V77.897C196.688 77.4893 196.657 77.0701 196.518 76.6755C196.379 76.2809 196.136 75.9226 195.809 75.6317C195.483 75.3407 195.083 75.1257 194.644 75.0052C194.205 74.8846 193.74 74.8622 193.289 74.9398C189.456 75.5584 183.285 76.6844 180.494 77.5815C175.18 79.2828 168.241 81.3553 163.942 84.9621C157.613 90.2641 160.191 100.528 160.177 107.803C160.184 112.783 159.745 119.558 162.351 124.878Z" stroke="#6D7D96" stroke-width="4" stroke-linecap="round" stroke-linejoin="round"/>
<path d="M164.642 141.046L164.881 127.175" stroke="#6D7D96" stroke-width="4" stroke-linecap="round" stroke-linejoin="round"/>
<path d="M197.971 140.624V123.24C197.971 120.592 197.855 118.674 198.568 117.851C199.137 117.189 202.36 116.942 202.36 116.942C200.303 108.28 199.617 98.7839 197.087 90.5186" stroke="#6D7D96" stroke-width="4" stroke-linecap="round" stroke-linejoin="round"/>
<path d="M67.4717 124.371C67.7803 128.806 70.6053 133.706 64.297 136.453C58.3932 139.021 52.4758 138.99 46.0646 139.287C40.823 139.544 35.5661 139.336 30.3693 138.668C26.4677 138.235 21.9559 138.049 22.4084 133.917C23.149 127.056 24.6095 121.154 25.8986 114.707C28.3739 102.334 32.0698 88.6118 45.852 83.3099C61.5268 77.2903 79.6975 85.4381 78.765 102.488C74.8529 102.92 70.9186 103.168 66.978 103.231C66.978 110.543 67.1357 119.514 67.4717 124.371Z" stroke="#6D7D96" stroke-width="4" stroke-linecap="round" stroke-linejoin="round"/>
<path d="M76.9032 102.558C77.2803 104.692 79.1934 113.409 79.6048 117.177C79.7419 118.414 76.5809 118.167 76.5809 118.167C76.3409 122.3 76.4369 144.108 76.4369 144.108" stroke="#6D7D96" stroke-width="4" stroke-linecap="round" stroke-linejoin="round"/>
<path d="M46.2246 144.497V139.678" stroke="#6D7D96" stroke-width="4" stroke-linecap="round" stroke-linejoin="round"/>
<path d="M79.4298 163.576L79.3543 163.545C76.303 162.271 76.2071 158.25 76.2002 155.719C76.2519 151.169 77.8958 146.75 80.8971 143.092C82.7896 140.698 86.0123 137.995 87.0066 142.406C85.8752 137.425 95.3925 135.347 99.6575 135.347C103.922 135.347 103.285 138.848 102.037 140.061C115.12 135.662 111.732 158.404 103.881 152.477C106.946 154.903 104.759 158.182 101.571 159.543C98.9405 160.703 95.9361 160.974 93.1036 160.305C90.2711 159.637 87.7986 158.073 86.1358 155.899C85.9644 157.953 86.4443 159.66 85.1347 161.597C83.9142 163.366 81.6925 164.48 79.4298 163.576Z" stroke="#6D7D96" stroke-width="4" stroke-linecap="round" stroke-linejoin="round"/>
<path d="M34.011 149.614C28.3815 146.409 17.9248 144.59 11.6371 148.698C7.52298 151.396 6.18589 157.31 9.70346 161.146C6.05561 158.417 -0.794394 162.154 3.71056 165.6C3.20316 165.6 2.62032 165.736 2.10606 165.742C1.96207 168.706 1.37238 172.3 5.83619 172.133C5.5962 177.918 20.3453 174.67 23.2115 173.414" stroke="#6D7D96" stroke-width="4" stroke-linecap="round" stroke-linejoin="round"/>
<path d="M26.2205 217.246C26.2205 200.486 20.5704 180.299 25.3771 163.898" stroke="#6D7D96" stroke-width="4" stroke-linecap="round" stroke-linejoin="round"/>
<path d="M30.335 153.196C39.5986 144.924 57.2893 144.126 64.1324 144.126C69.1889 144.131 74.2317 144.599 79.1832 145.524" stroke="#6D7D96" stroke-width="4" stroke-linecap="round" stroke-linejoin="round"/>
<path d="M84.6214 211.314C73.5407 211.351 56.7139 211.283 45.9692 213.25C39.3455 214.488 29.7733 214.401 24.1781 218.49C19.5772 221.856 17.2321 229.348 15.3054 234.409C11.7604 243.732 12.0278 254.249 11.0472 263.913C9.83357 275.971 10.9375 288.239 10.629 300.352C10.3341 312.057 6.96055 323.676 6.11715 335.35C5.21205 347.859 4.84178 359.837 4.52637 371.938C8.96276 375.112 19.6732 371.127 24.8638 371.22C29.5471 371.301 34.4017 372.86 39.2632 372.358C44.3236 371.833 49.0617 369.742 53.9438 368.69C63.5434 366.623 71.9979 371.981 81.2889 370.385C85.835 369.612 89.5172 367.057 94.3787 367.62C97.1214 367.935 99.6105 368.739 101.99 368.739C104.369 368.739 104.966 368.04 107.071 367.075C108.312 357.047 108.003 346.771 107.996 336.563C107.996 330.042 106.515 297.358 106.515 297.358" stroke="#6D7D96" stroke-width="4" stroke-linecap="round" stroke-linejoin="round"/>
<path d="M36.3564 214.807C28.0116 224.335 24.7546 244.082 25.2071 256.016" stroke="#6D7D96" stroke-width="4" stroke-linecap="round" stroke-linejoin="round"/>
<path d="M45.3655 213.391C34.9157 223.469 33.99 245.673 33.3455 258.695C32.9409 266.998 33.7706 275.226 33.3935 283.442C33.0506 290.909 31.6175 301.235 33.7843 308.38" stroke="#6D7D96" stroke-width="4" stroke-linecap="round" stroke-linejoin="round"/>
<path d="M33.3533 322.37C33.4011 324.774 33.2592 327.178 32.9287 329.565" stroke="#6D7D96" stroke-width="4" stroke-linecap="round" stroke-linejoin="round"/>
<path d="M55.2344 212.229C58.8754 214.864 60.2056 223.309 60.6376 227.076" stroke="#6D7D96" stroke-width="4" stroke-linecap="round" stroke-linejoin="round"/>
<path d="M66.3887 212.061C73.1358 222.127 73.3072 231.982 74.1095 243.613C74.658 251.656 74.4318 261.969 74.8843 269.987" stroke="#6D7D96" stroke-width="4" stroke-linecap="round" stroke-linejoin="round"/>
<path d="M76.7725 212.409C78.3633 215.341 78.7404 218.595 79.7689 221.602" stroke="#6D7D96" stroke-width="4" stroke-linecap="round" stroke-linejoin="round"/>
<path d="M91.2643 354.749C91.2232 343.65 90.4082 332.675 90.4082 321.57" stroke="#6D7D96" stroke-width="4" stroke-linecap="round" stroke-linejoin="round"/>
<path d="M49.2256 360.745C49.2256 349.844 52.414 339.234 52.2289 328.371" stroke="#6D7D96" stroke-width="4" stroke-linecap="round" stroke-linejoin="round"/>
<path d="M63.3836 358.344C63.3219 356.074 62.911 353.828 62.9521 351.539" stroke="#6D7D96" stroke-width="4" stroke-linecap="round" stroke-linejoin="round"/>
<path d="M80.2881 164.479C80.2881 164.479 84.7999 205.737 85.945 226.456C86.7472 240.846 88.0021 248.215 88.2146 262.574" stroke="#6D7D96" stroke-width="4" stroke-linecap="round" stroke-linejoin="round"/>
<path d="M103.278 158.701C103.278 158.701 106.158 181.808 106.885 193.619C107.571 204.408 108.812 215.222 109.292 225.987C109.696 235.23 110.574 263.057 110.574 263.057" stroke="#6D7D96" stroke-width="4" stroke-linecap="round" stroke-linejoin="round"/>
<path d="M111 276.538C111 287.495 111.685 296.954 99.4184 300.938C90.9845 303.685 77.7919 304.984 76.6605 294.182C76.0228 288.089 80.7129 285.806 83.2911 290.563" stroke="#6D7D96" stroke-width="4" stroke-linecap="round" stroke-linejoin="round"/>
<path d="M83.5439 295.115C83.5439 290.785 83.5439 283.98 89.0294 282.656C89.1186 280.967 89.0911 279.234 89.098 277.527" stroke="#6D7D96" stroke-width="4" stroke-linecap="round" stroke-linejoin="round"/>
<path d="M92.8982 297.759C92.4525 299.324 91.4788 300.679 90.752 302.157" stroke="#6D7D96" stroke-width="4" stroke-linecap="round" stroke-linejoin="round"/>
<path d="M100.537 296.12C100.317 297.196 98.7676 299.869 98.1299 300.778" stroke="#6D7D96" stroke-width="4" stroke-linecap="round" stroke-linejoin="round"/>
<path d="M9.84473 175.672C9.84473 175.672 10.6264 212.31 11.0515 220.031C11.4767 227.752 12.7658 242.828 12.7658 242.828" stroke="#6D7D96" stroke-width="4" stroke-linecap="round" stroke-linejoin="round"/>
<path d="M91.1087 214.814C90.6206 215.333 90.1628 215.874 89.7373 216.435" stroke="#6D7D96" stroke-width="4" stroke-linecap="round" stroke-linejoin="round"/>
<path d="M15.7633 216.447C15.3689 216.926 15.0784 217.467 14.9072 218.043" stroke="#6D7D96" stroke-width="4" stroke-linecap="round" stroke-linejoin="round"/>
<path d="M26.4886 371.757C26.4886 376.595 26.742 380.876 26.4886 385.714C26.3037 389.253 26.3106 394.864 26.3106 394.864" stroke="#6D7D96" stroke-width="4" stroke-linecap="round" stroke-linejoin="round"/>
<path d="M50.262 370.594C50.262 379.577 50.084 386.531 50.084 395.52" stroke="#6D7D96" stroke-width="4" stroke-linecap="round" stroke-linejoin="round"/>
<path d="M82.2637 370.341C82.7368 378.198 80.5632 386.735 81.3997 394.32" stroke="#6D7D96" stroke-width="4" stroke-linecap="round" stroke-linejoin="round"/>
<path d="M24.349 400.315H59.223C59.2853 399.214 59.2093 398.11 58.9967 397.024C48.54 394.32 34.7714 394.277 23.9856 395.168C23.8004 397.296 22.6896 398.7 24.349 400.315Z" fill="#6D7D96" stroke="#6D7D96" stroke-width="4" stroke-linecap="round" stroke-linejoin="round"/>
<path d="M50.2618 400.315H89.106C89.145 399.335 88.8323 398.371 88.2146 397.565C87.5968 396.759 86.7069 396.154 85.6775 395.842C73.7466 393.924 60.7528 394.394 49.8573 395.223C49.6584 397.295 48.4174 398.7 50.2618 400.315Z" fill="#6D7D96" stroke="#6D7D96" stroke-width="4" stroke-linecap="round" stroke-linejoin="round"/>
<path d="M19.6314 310.379C18.6508 322.666 18.4108 334.965 17.444 347.202C16.9435 353.562 15.147 363.225 15.2772 369.282" stroke="#6D7D96" stroke-width="4" stroke-linecap="round" stroke-linejoin="round"/>
<path d="M85.5877 274.323C83.5306 271.972 83.3455 262.407 85.3889 262.927C87.4322 263.447 95.921 263.923 97.1552 264.004C99.8129 264.212 102.488 264.148 105.13 263.812C108.126 263.404 110.684 262.692 112.967 263.484C115.25 264.276 114.88 269.33 114.483 271.663C113.502 277.484 108.538 277.559 100.968 277.738C93.3977 277.917 87.6242 276.674 85.5877 274.323Z" stroke="#6D7D96" stroke-width="4" stroke-linecap="round" stroke-linejoin="round"/>
<path d="M88.2701 270.445C88.1126 269.987 88.2701 269.721 88.6742 269.634" stroke="#6D7D96" stroke-width="4" stroke-linecap="round" stroke-linejoin="round"/>
<path d="M95.1885 272.276L95.5926 271.472" stroke="#6D7D96" stroke-width="4" stroke-linecap="round" stroke-linejoin="round"/>
<path d="M94.6191 267.493L95.4684 267.072" stroke="#6D7D96" stroke-width="4" stroke-linecap="round" stroke-linejoin="round"/>
<path d="M102.373 268.509C102.715 268.181 103.298 267.618 103.215 268.088" stroke="#6D7D96" stroke-width="4" stroke-linecap="round" stroke-linejoin="round"/>
<path d="M103.368 273.308C103.869 272.782 104.383 272.368 104.637 272.479" stroke="#6D7D96" stroke-width="4" stroke-linecap="round" stroke-linejoin="round"/>
<path d="M108.367 267.97C108.701 267.593 108.977 267.176 109.189 266.733" stroke="#6D7D96" stroke-width="4" stroke-linecap="round" stroke-linejoin="round"/>
<path d="M111.452 270.692H112.734" stroke="#6D7D96" stroke-width="4" stroke-linecap="round" stroke-linejoin="round"/>
<path d="M166.239 230.622C165.985 230.622 147.396 231.754 145.209 231.859C145.566 240.007 144.523 251.038 156.276 254.787C156.276 254.787 165.56 251.156 166.369 243.379C166.788 239.438 166.397 234.619 166.239 230.622Z" stroke="#6D7D96" stroke-width="4" stroke-linecap="round" stroke-linejoin="round"/>
<path d="M146.998 237.582C149.679 237.471 154.184 237.334 154.184 237.334" stroke="#6D7D96" stroke-width="4" stroke-linecap="round" stroke-linejoin="round"/>
<path d="M160.281 237.074L165.307 236.864" stroke="#6D7D96" stroke-width="4" stroke-linecap="round" stroke-linejoin="round"/>
<path d="M201.235 230.393C200.982 230.393 182.359 230.777 180.164 230.77C180.123 238.924 178.505 249.949 190.093 254.119C190.093 254.119 199.556 250.858 200.735 243.119C201.338 239.215 201.194 234.39 201.235 230.393Z" stroke="#6D7D96" stroke-width="4" stroke-linecap="round" stroke-linejoin="round"/>
<path d="M181.966 236.597C188.137 236.597 194.713 235.861 200.671 236.251" stroke="#6D7D96" stroke-width="4" stroke-linecap="round" stroke-linejoin="round"/>
<path d="M168.204 258.511C169.925 258.907 172.353 259.266 173.882 259.65" stroke="#6D7D96" stroke-width="4" stroke-linecap="round" stroke-linejoin="round"/>
<path d="M426.03 246.008C426.03 253.358 413.338 255.622 410.65 248.693C408.942 244.282 410.513 238.516 416.032 237.644C422.066 236.685 426.03 240.706 426.03 246.008Z" fill="#6D7D96" stroke="#6D7D96" stroke-width="4" stroke-linecap="round" stroke-linejoin="round"/>
<path d="M418.683 241.243C419.439 241.356 420.129 241.699 420.639 242.216C421.148 242.733 421.445 243.392 421.48 244.083" stroke="#6D7D96" stroke-width="4" stroke-linecap="round" stroke-linejoin="round"/>
<path d="M439.688 247.783V243.044" stroke="#6D7D96" stroke-width="4" stroke-linecap="round" stroke-linejoin="round"/>
<path d="M72.2588 111.57V110.594" stroke="#6D7D96" stroke-width="4" stroke-linecap="round" stroke-linejoin="round"/>
<path d="M194.31 107.24V106.264" stroke="#6D7D96" stroke-width="4" stroke-linecap="round" stroke-linejoin="round"/>
<path d="M339.223 86.9111C343.899 93.8835 351.647 96.8098 359.327 98.7152C362.755 99.5628 370.84 100.243 374.09 98.9813" stroke="#6D7D96" stroke-width="4" stroke-linecap="round" stroke-linejoin="round"/>
<path d="M369.816 127.651C375.137 127.459 380.342 127.113 385.649 126.735C388.974 126.5 393.658 126.457 396.97 126.191C397.731 125.312 397.216 123.376 396.894 122.436C396.208 120.543 394.391 118.804 393.054 117.158C391.038 114.684 390.997 112.574 390.737 109.53C390.353 105.311 387.822 101.636 385.032 98.5057C383.187 96.4332 380.527 94.9175 379.094 92.5789C376.769 88.7803 375.247 84.4744 372.593 82.0059C369.94 79.5375 362.829 76.5988 355.28 76.4998C347.73 76.4008 339.639 78.9745 335.82 82.1606C331.253 85.9778 330.828 92.3624 328.853 96.6497C327.88 98.7656 325.672 99.8915 324.259 101.741C321.688 105.101 323.313 109.017 321.805 112.537C320.879 114.702 318.253 115.878 316.717 117.666C314.557 120.19 313.7 124.044 313.508 127.063C317.972 127.249 322.422 127.756 326.831 127.985C330.657 128.189 333.79 128.226 337.61 128.245" stroke="#6D7D96" stroke-width="4" stroke-linecap="round" stroke-linejoin="round"/>
</svg>
