<svg width="179" height="47" viewBox="0 0 179 47" fill="none" xmlns="http://www.w3.org/2000/svg">
<path d="M15.792 46.024C9.776 46.024 4.69867 44.9147 0.56 42.696L3.76 32.776C8.15467 34.3547 12.08 35.144 15.536 35.144C17.4133 35.144 18.7787 34.9307 19.632 34.504C20.528 34.0347 20.976 33.352 20.976 32.456C20.976 31.8587 20.7413 31.3467 20.272 30.92C19.8027 30.4507 18.864 29.9387 17.456 29.384C16.048 28.8293 13.936 28.1467 11.12 27.336C7.664 26.312 4.976 24.648 3.056 22.344C1.136 19.9973 0.176 17.3093 0.176 14.28C0.176 9.58666 1.712 6.04533 4.784 3.656C7.89867 1.224 12.08 0.00799942 17.328 0.00799942C20.0587 0.00799942 22.7467 0.306666 25.392 0.903999C28.0373 1.45866 30.384 2.29066 32.432 3.4L28.976 13.064C26.5867 12.2533 24.496 11.6773 22.704 11.336C20.9547 10.952 19.248 10.76 17.584 10.76C14.768 10.76 13.36 11.528 13.36 13.064C13.36 13.832 13.808 14.4933 14.704 15.048C15.6427 15.56 17.5413 16.2213 20.4 17.032C24.88 18.2267 28.272 20.0613 30.576 22.536C32.88 24.968 34.032 27.8907 34.032 31.304C34.032 36.04 32.496 39.688 29.424 42.248C26.352 44.7653 21.808 46.024 15.792 46.024ZM40.035 0.967999H54.819V45H40.035V0.967999ZM76.792 46.024C70.776 46.024 65.6987 44.9147 61.56 42.696L64.76 32.776C69.1547 34.3547 73.08 35.144 76.536 35.144C78.4133 35.144 79.7787 34.9307 80.632 34.504C81.528 34.0347 81.976 33.352 81.976 32.456C81.976 31.8587 81.7413 31.3467 81.272 30.92C80.8027 30.4507 79.864 29.9387 78.456 29.384C77.048 28.8293 74.936 28.1467 72.12 27.336C68.664 26.312 65.976 24.648 64.056 22.344C62.136 19.9973 61.176 17.3093 61.176 14.28C61.176 9.58666 62.712 6.04533 65.784 3.656C68.8987 1.224 73.08 0.00799942 78.328 0.00799942C81.0587 0.00799942 83.7467 0.306666 86.392 0.903999C89.0373 1.45866 91.384 2.29066 93.432 3.4L89.976 13.064C87.5867 12.2533 85.496 11.6773 83.704 11.336C81.9547 10.952 80.248 10.76 78.584 10.76C75.768 10.76 74.36 11.528 74.36 13.064C74.36 13.832 74.808 14.4933 75.704 15.048C76.6427 15.56 78.5413 16.2213 81.4 17.032C85.88 18.2267 89.272 20.0613 91.576 22.536C93.88 24.968 95.032 27.8907 95.032 31.304C95.032 36.04 93.496 39.688 90.424 42.248C87.352 44.7653 82.808 46.024 76.792 46.024ZM109.355 0.967999H128.811L141.547 45H126.507L124.843 36.552H113.451L111.595 45H97.195L109.355 0.967999ZM123.307 28.68L119.147 9.416L114.795 28.68H123.307Z" fill="#3E5679"/>
<path d="M166.521 46.024C162.254 46.024 158.372 45.0213 154.873 43.016C151.417 40.968 148.665 38.1947 146.617 34.696C144.612 31.1547 143.609 27.2507 143.609 22.984C143.609 18.632 144.59 14.7067 146.553 11.208C148.516 7.70933 151.204 4.97867 154.617 3.016C158.03 1.01067 161.87 0.00799942 166.137 0.00799942C168.441 0.00799942 170.702 0.285332 172.921 0.839996C175.14 1.39466 177.038 2.184 178.617 3.208L176.889 13.128C173.817 11.976 171.044 11.4 168.569 11.4C165.156 11.4 162.532 12.4027 160.697 14.408C158.862 16.3707 157.945 19.208 157.945 22.92C157.945 26.5467 158.905 29.384 160.825 31.432C162.788 33.4373 165.497 34.44 168.953 34.44C170.276 34.44 171.513 34.312 172.665 34.056C173.817 33.8 175.225 33.3307 176.889 32.648L178.681 42.76C174.969 44.936 170.916 46.024 166.521 46.024Z" fill="#A1C2F5"/>
</svg>
